<svg width="35" height="35" viewBox="0 0 35 35" fill="none" xmlns="http://www.w3.org/2000/svg">
<path fill-rule="evenodd" clip-rule="evenodd" d="M11.3604 22.2687L12.425 17.2958C12.58 16.6048 12.9291 15.9723 13.4312 15.4729L23.1583 5.83333C24.1447 4.8285 25.484 4.24781 26.8917 4.21458C27.9533 4.19937 28.9771 4.60888 29.7354 5.35208C31.3923 7.30984 31.1784 10.2334 29.2542 11.9292L19.5271 21.6562C19.0276 22.1584 18.3952 22.5075 17.7042 22.6625L12.7312 23.7271H12.4542C12.0906 23.741 11.7434 23.5756 11.5251 23.2846C11.3068 22.9935 11.2452 22.6139 11.3604 22.2687ZM14.9771 17.0333C14.7727 17.2313 14.6308 17.4848 14.5687 17.7625L13.8542 21.1604L17.2521 20.4312C17.5298 20.3692 17.7832 20.2272 17.9812 20.0229L27.7083 10.2958C28.7739 9.44274 28.9854 7.90486 28.1896 6.79583C27.8411 6.4629 27.3733 6.2842 26.8917 6.3C26.0612 6.33334 25.2765 6.68908 24.7042 7.29167L14.9771 17.0333Z" fill="black"/>
<path d="M29.0354 15.9396C28.4346 15.9474 27.9495 16.4326 27.9417 17.0333V25.3312C27.9612 26.5042 27.5089 27.6358 26.6863 28.4721C25.8637 29.3084 24.7397 29.7793 23.5667 29.7792H9.66874C7.24407 29.7316 5.3012 27.7564 5.29374 25.3312V11.4917C5.33355 9.06367 7.31334 7.11634 9.74166 7.11667H18.0396C18.6436 7.11667 19.1333 6.62698 19.1333 6.02292C19.1333 5.41885 18.6436 4.92916 18.0396 4.92916H9.66874C6.03239 4.92895 3.07329 7.85553 3.03333 11.4917V25.3312C3.03333 28.9959 6.0041 31.9667 9.66874 31.9667H23.5083C27.1673 31.9586 30.1292 28.9902 30.1292 25.3312V17.0333C30.1213 16.4326 29.6362 15.9474 29.0354 15.9396Z" fill="black"/>
</svg>
